<?xml version="1.0" standalone="yes"?>
<!-- SVG graphic -->
<svg xmlns='http://www.w3.org/2000/svg' xmlns:xlink='http://www.w3.org/1999/xlink'
 version="1.1">
<rect x="0" y="0" width="6" height="200" stroke="black" stroke-width="1" fill="blue" tooltip="enable"><title>(0,577)</title></rect><rect x="6" y="42.2877" width="6" height="157.712" stroke="black" stroke-width="1" fill="blue" tooltip="enable"><title>(0.0388716,455)</title></rect><rect x="12" y="76.9497" width="6" height="123.05" stroke="black" stroke-width="1" fill="blue" tooltip="enable"><title>(0.0777432,355)</title></rect><rect x="18" y="81.4558" width="6" height="118.544" stroke="black" stroke-width="1" fill="blue" tooltip="enable"><title>(0.116615,342)</title></rect><rect x="24" y="101.213" width="6" height="98.7868" stroke="black" stroke-width="1" fill="blue" tooltip="enable"><title>(0.155486,285)</title></rect><rect x="30" y="98.7868" width="6" height="101.213" stroke="black" stroke-width="1" fill="blue" tooltip="enable"><title>(0.194358,292)</title></rect><rect x="36" y="116.464" width="6" height="83.5355" stroke="black" stroke-width="1" fill="blue" tooltip="enable"><title>(0.233229,241)</title></rect><rect x="42" y="122.704" width="6" height="77.2964" stroke="black" stroke-width="1" fill="blue" tooltip="enable"><title>(0.272101,223)</title></rect><rect x="48" y="128.596" width="6" height="71.4038" stroke="black" stroke-width="1" fill="blue" tooltip="enable"><title>(0.310973,206)</title></rect><rect x="54" y="129.289" width="6" height="70.7106" stroke="black" stroke-width="1" fill="blue" tooltip="enable"><title>(0.349844,204)</title></rect><rect x="60" y="140.381" width="6" height="59.6187" stroke="black" stroke-width="1" fill="blue" tooltip="enable"><title>(0.388716,172)</title></rect><rect x="66" y="137.262" width="6" height="62.7383" stroke="black" stroke-width="1" fill="blue" tooltip="enable"><title>(0.427587,181)</title></rect><rect x="72" y="141.768" width="6" height="58.2322" stroke="black" stroke-width="1" fill="blue" tooltip="enable"><title>(0.466459,168)</title></rect><rect x="78" y="141.075" width="6" height="58.9255" stroke="black" stroke-width="1" fill="blue" tooltip="enable"><title>(0.50533,170)</title></rect><rect x="84" y="152.166" width="6" height="47.8336" stroke="black" stroke-width="1" fill="blue" tooltip="enable"><title>(0.544202,138)</title></rect><rect x="90" y="146.967" width="6" height="53.0329" stroke="black" stroke-width="1" fill="blue" tooltip="enable"><title>(0.583074,153)</title></rect><rect x="96" y="154.246" width="6" height="45.7539" stroke="black" stroke-width="1" fill="blue" tooltip="enable"><title>(0.621945,132)</title></rect><rect x="102" y="143.501" width="6" height="56.4991" stroke="black" stroke-width="1" fill="blue" tooltip="enable"><title>(0.660817,163)</title></rect><rect x="108" y="158.059" width="6" height="41.9411" stroke="black" stroke-width="1" fill="blue" tooltip="enable"><title>(0.699688,121)</title></rect><rect x="114" y="154.593" width="6" height="45.4073" stroke="black" stroke-width="1" fill="blue" tooltip="enable"><title>(0.73856,131)</title></rect><rect x="120" y="155.979" width="6" height="44.0208" stroke="black" stroke-width="1" fill="blue" tooltip="enable"><title>(0.777431,127)</title></rect><rect x="126" y="160.832" width="6" height="39.1681" stroke="black" stroke-width="1" fill="blue" tooltip="enable"><title>(0.816303,113)</title></rect><rect x="132" y="160.139" width="6" height="39.8614" stroke="black" stroke-width="1" fill="blue" tooltip="enable"><title>(0.855175,115)</title></rect><rect x="138" y="164.645" width="6" height="35.3553" stroke="black" stroke-width="1" fill="blue" tooltip="enable"><title>(0.894046,102)</title></rect><rect x="144" y="161.872" width="6" height="38.1283" stroke="black" stroke-width="1" fill="blue" tooltip="enable"><title>(0.932918,110)</title></rect><rect x="150" y="158.406" width="6" height="41.5945" stroke="black" stroke-width="1" fill="blue" tooltip="enable"><title>(0.971789,120)</title></rect><rect x="156" y="167.418" width="6" height="32.5823" stroke="black" stroke-width="1" fill="blue" tooltip="enable"><title>(1.01066,94)</title></rect><rect x="162" y="168.804" width="6" height="31.1958" stroke="black" stroke-width="1" fill="blue" tooltip="enable"><title>(1.04953,90)</title></rect><rect x="168" y="170.884" width="6" height="29.1161" stroke="black" stroke-width="1" fill="blue" tooltip="enable"><title>(1.0884,84)</title></rect><rect x="174" y="171.577" width="6" height="28.4229" stroke="black" stroke-width="1" fill="blue" tooltip="enable"><title>(1.12728,82)</title></rect><rect x="180" y="170.537" width="6" height="29.4627" stroke="black" stroke-width="1" fill="blue" tooltip="enable"><title>(1.16615,85)</title></rect><rect x="186" y="173.657" width="6" height="26.3432" stroke="black" stroke-width="1" fill="blue" tooltip="enable"><title>(1.20502,76)</title></rect><rect x="192" y="167.071" width="6" height="32.9289" stroke="black" stroke-width="1" fill="blue" tooltip="enable"><title>(1.24389,95)</title></rect><rect x="198" y="171.924" width="6" height="28.0763" stroke="black" stroke-width="1" fill="blue" tooltip="enable"><title>(1.28276,81)</title></rect><rect x="204" y="174.697" width="6" height="25.3033" stroke="black" stroke-width="1" fill="blue" tooltip="enable"><title>(1.32163,73)</title></rect><rect x="210" y="181.283" width="6" height="18.7175" stroke="black" stroke-width="1" fill="blue" tooltip="enable"><title>(1.36051,54)</title></rect><rect x="216" y="177.123" width="6" height="22.8769" stroke="black" stroke-width="1" fill="blue" tooltip="enable"><title>(1.39938,66)</title></rect><rect x="222" y="174.35" width="6" height="25.6499" stroke="black" stroke-width="1" fill="blue" tooltip="enable"><title>(1.43825,74)</title></rect><rect x="228" y="177.816" width="6" height="22.1837" stroke="black" stroke-width="1" fill="blue" tooltip="enable"><title>(1.47712,64)</title></rect><rect x="234" y="187.522" width="6" height="12.4783" stroke="black" stroke-width="1" fill="blue" tooltip="enable"><title>(1.51599,36)</title></rect><rect x="240" y="182.322" width="6" height="17.6776" stroke="black" stroke-width="1" fill="blue" tooltip="enable"><title>(1.55486,51)</title></rect><rect x="246" y="186.828" width="6" height="13.1716" stroke="black" stroke-width="1" fill="blue" tooltip="enable"><title>(1.59373,38)</title></rect><rect x="252" y="183.016" width="6" height="16.9844" stroke="black" stroke-width="1" fill="blue" tooltip="enable"><title>(1.63261,49)</title></rect><rect x="258" y="182.322" width="6" height="17.6776" stroke="black" stroke-width="1" fill="blue" tooltip="enable"><title>(1.67148,51)</title></rect><rect x="264" y="188.562" width="6" height="11.4385" stroke="black" stroke-width="1" fill="blue" tooltip="enable"><title>(1.71035,33)</title></rect><rect x="270" y="185.789" width="6" height="14.2114" stroke="black" stroke-width="1" fill="blue" tooltip="enable"><title>(1.74922,41)</title></rect><rect x="276" y="185.789" width="6" height="14.2114" stroke="black" stroke-width="1" fill="blue" tooltip="enable"><title>(1.78809,41)</title></rect><rect x="282" y="192.374" width="6" height="7.62565" stroke="black" stroke-width="1" fill="blue" tooltip="enable"><title>(1.82696,22)</title></rect><rect x="288" y="190.988" width="6" height="9.01213" stroke="black" stroke-width="1" fill="blue" tooltip="enable"><title>(1.86584,26)</title></rect><rect x="294" y="190.988" width="6" height="9.01213" stroke="black" stroke-width="1" fill="blue" tooltip="enable"><title>(1.90471,26)</title></rect><rect x="300" y="188.908" width="6" height="11.0919" stroke="black" stroke-width="1" fill="blue" tooltip="enable"><title>(1.94358,32)</title></rect><rect x="306" y="191.334" width="6" height="8.66551" stroke="black" stroke-width="1" fill="blue" tooltip="enable"><title>(1.98245,25)</title></rect><rect x="312" y="188.908" width="6" height="11.0919" stroke="black" stroke-width="1" fill="blue" tooltip="enable"><title>(2.02132,32)</title></rect><rect x="318" y="184.402" width="6" height="15.5979" stroke="black" stroke-width="1" fill="blue" tooltip="enable"><title>(2.06019,45)</title></rect><rect x="324" y="193.068" width="6" height="6.93241" stroke="black" stroke-width="1" fill="blue" tooltip="enable"><title>(2.09907,20)</title></rect><rect x="330" y="188.562" width="6" height="11.4385" stroke="black" stroke-width="1" fill="blue" tooltip="enable"><title>(2.13794,33)</title></rect><rect x="336" y="192.721" width="6" height="7.27903" stroke="black" stroke-width="1" fill="blue" tooltip="enable"><title>(2.17681,21)</title></rect><rect x="342" y="192.028" width="6" height="7.97227" stroke="black" stroke-width="1" fill="blue" tooltip="enable"><title>(2.21568,23)</title></rect><rect x="348" y="191.334" width="6" height="8.66551" stroke="black" stroke-width="1" fill="blue" tooltip="enable"><title>(2.25455,25)</title></rect><rect x="354" y="194.107" width="6" height="5.89255" stroke="black" stroke-width="1" fill="blue" tooltip="enable"><title>(2.29342,17)</title></rect><rect x="360" y="191.334" width="6" height="8.66551" stroke="black" stroke-width="1" fill="blue" tooltip="enable"><title>(2.33229,25)</title></rect><rect x="366" y="193.414" width="6" height="6.58579" stroke="black" stroke-width="1" fill="blue" tooltip="enable"><title>(2.37117,19)</title></rect><rect x="372" y="192.028" width="6" height="7.97227" stroke="black" stroke-width="1" fill="blue" tooltip="enable"><title>(2.41004,23)</title></rect><rect x="378" y="192.028" width="6" height="7.97227" stroke="black" stroke-width="1" fill="blue" tooltip="enable"><title>(2.44891,23)</title></rect><rect x="384" y="193.068" width="6" height="6.93241" stroke="black" stroke-width="1" fill="blue" tooltip="enable"><title>(2.48778,20)</title></rect><rect x="390" y="193.761" width="6" height="6.23917" stroke="black" stroke-width="1" fill="blue" tooltip="enable"><title>(2.52665,18)</title></rect><rect x="396" y="195.494" width="6" height="4.50607" stroke="black" stroke-width="1" fill="blue" tooltip="enable"><title>(2.56552,13)</title></rect><rect x="402" y="194.107" width="6" height="5.89255" stroke="black" stroke-width="1" fill="blue" tooltip="enable"><title>(2.6044,17)</title></rect><rect x="408" y="195.494" width="6" height="4.50607" stroke="black" stroke-width="1" fill="blue" tooltip="enable"><title>(2.64327,13)</title></rect><rect x="414" y="195.841" width="6" height="4.15945" stroke="black" stroke-width="1" fill="blue" tooltip="enable"><title>(2.68214,12)</title></rect><rect x="420" y="197.227" width="6" height="2.77296" stroke="black" stroke-width="1" fill="blue" tooltip="enable"><title>(2.72101,8)</title></rect><rect x="426" y="194.454" width="6" height="5.54593" stroke="black" stroke-width="1" fill="blue" tooltip="enable"><title>(2.75988,16)</title></rect><rect x="432" y="194.454" width="6" height="5.54593" stroke="black" stroke-width="1" fill="blue" tooltip="enable"><title>(2.79875,16)</title></rect><rect x="438" y="194.107" width="6" height="5.89255" stroke="black" stroke-width="1" fill="blue" tooltip="enable"><title>(2.83763,17)</title></rect><rect x="444" y="196.534" width="6" height="3.4662" stroke="black" stroke-width="1" fill="blue" tooltip="enable"><title>(2.8765,10)</title></rect><rect x="450" y="196.534" width="6" height="3.4662" stroke="black" stroke-width="1" fill="blue" tooltip="enable"><title>(2.91537,10)</title></rect><rect x="456" y="196.534" width="6" height="3.4662" stroke="black" stroke-width="1" fill="blue" tooltip="enable"><title>(2.95424,10)</title></rect><rect x="462" y="196.534" width="6" height="3.4662" stroke="black" stroke-width="1" fill="blue" tooltip="enable"><title>(2.99311,10)</title></rect><rect x="468" y="197.227" width="6" height="2.77296" stroke="black" stroke-width="1" fill="blue" tooltip="enable"><title>(3.03198,8)</title></rect><rect x="474" y="197.92" width="6" height="2.07972" stroke="black" stroke-width="1" fill="blue" tooltip="enable"><title>(3.07085,6)</title></rect><rect x="480" y="197.227" width="6" height="2.77296" stroke="black" stroke-width="1" fill="blue" tooltip="enable"><title>(3.10973,8)</title></rect><rect x="486" y="196.534" width="6" height="3.4662" stroke="black" stroke-width="1" fill="blue" tooltip="enable"><title>(3.1486,10)</title></rect><rect x="492" y="197.574" width="6" height="2.42634" stroke="black" stroke-width="1" fill="blue" tooltip="enable"><title>(3.18747,7)</title></rect><rect x="498" y="197.92" width="6" height="2.07972" stroke="black" stroke-width="1" fill="blue" tooltip="enable"><title>(3.22634,6)</title></rect><rect x="504" y="197.92" width="6" height="2.07972" stroke="black" stroke-width="1" fill="blue" tooltip="enable"><title>(3.26521,6)</title></rect><rect x="510" y="199.653" width="6" height="0.34662" stroke="black" stroke-width="1" fill="blue" tooltip="enable"><title>(3.30408,1)</title></rect><rect x="516" y="198.96" width="6" height="1.03986" stroke="black" stroke-width="1" fill="blue" tooltip="enable"><title>(3.34296,3)</title></rect><rect x="522" y="198.96" width="6" height="1.03986" stroke="black" stroke-width="1" fill="blue" tooltip="enable"><title>(3.38183,3)</title></rect><rect x="528" y="198.267" width="6" height="1.7331" stroke="black" stroke-width="1" fill="blue" tooltip="enable"><title>(3.4207,5)</title></rect><rect x="534" y="198.96" width="6" height="1.03986" stroke="black" stroke-width="1" fill="blue" tooltip="enable"><title>(3.45957,3)</title></rect><rect x="540" y="199.653" width="6" height="0.34662" stroke="black" stroke-width="1" fill="blue" tooltip="enable"><title>(3.49844,1)</title></rect><rect x="546" y="200" width="6" height="0" stroke="black" stroke-width="1" fill="blue" tooltip="enable"><title>(3.53731,0)</title></rect><rect x="552" y="198.267" width="6" height="1.7331" stroke="black" stroke-width="1" fill="blue" tooltip="enable"><title>(3.57618,5)</title></rect><rect x="558" y="199.653" width="6" height="0.34662" stroke="black" stroke-width="1" fill="blue" tooltip="enable"><title>(3.61506,1)</title></rect><rect x="564" y="198.96" width="6" height="1.03986" stroke="black" stroke-width="1" fill="blue" tooltip="enable"><title>(3.65393,3)</title></rect><rect x="570" y="198.96" width="6" height="1.03986" stroke="black" stroke-width="1" fill="blue" tooltip="enable"><title>(3.6928,3)</title></rect><rect x="576" y="199.653" width="6" height="0.34662" stroke="black" stroke-width="1" fill="blue" tooltip="enable"><title>(3.73167,1)</title></rect><rect x="582" y="199.307" width="6" height="0.693241" stroke="black" stroke-width="1" fill="blue" tooltip="enable"><title>(3.77054,2)</title></rect><rect x="588" y="199.653" width="6" height="0.34662" stroke="black" stroke-width="1" fill="blue" tooltip="enable"><title>(3.80941,1)</title></rect><rect x="594" y="199.653" width="6" height="0.34662" stroke="black" stroke-width="1" fill="blue" tooltip="enable"><title>(3.84829,1)</title></rect><text x="30" y="240" font-size="20" fill="black">0</text>
<text x="600" y="240" font-size="20" fill="black">3.88716</text>
<polyline points="0,220,600,220" stroke="black" stroke-width="1" fill="none"/>
<text x="720" y="20" font-size="20" fill="black">577</text>
<text x="720" y="200" font-size="20" fill="black">0</text>
<polyline points="660,0,660,200" stroke="black" stroke-width="1" fill="none"/>
</svg>